# xmcd CD database file
# Generated: Sun Jul 20 13:55:19 2003 by KSCD
# 
# Track frame offsets:
#       150
#       15761
#       31538
#       44446
#       57179
#       72594
#       94858
#       105815
#       108360
#       122939
#       143052
#       159953
#
# Disc length: 2273 seconds
#
# Revision: 1
# Processed by: cddbd v1.4PL0 Copyright (c) Steve Scherf et al.
# Submitted via: Kscd 1.3.3
#
DISCID=8c08df0c
DTITLE=Lee Van Leer and the Nouns - Thumbs Up
DYEAR=1900
DGENRE=
TTITLE0=Trampy Boy
TTITLE1=Bashful
TTITLE2=Goin' to the Dogs
TTITLE3=Roll on Through the Night
TTITLE4=Grown to Love You
TTITLE5=A Love to Last a Lifetime Long
TTITLE6=The Ultimate Boogie
TTITLE7=Little Gem
TTITLE8=Search
TTITLE9=A Change for the Better
TTITLE10=Home By Ten
TTITLE11=Bonus Track
EXTD=
EXTT0=
EXTT1=
EXTT2=
EXTT3=
EXTT4=
EXTT5=
EXTT6=
EXTT7=
EXTT8=
EXTT9=
EXTT10=
EXTT11=
PLAYORDER=
